<svg id="Icons" height="512" viewBox="0 0 60 60" width="512" xmlns="http://www.w3.org/2000/svg"><path d="m12 41a2 2 0 0 0 2 2h32a2 2 0 0 0 2-2v-22h-36zm7.5-19a3.5 3.5 0 1 1 -3.5 3.5 3.5 3.5 0 0 1 3.5-3.5zm-3.5 15.323a2.98 2.98 0 0 1 .879-2.121l4.707-4.702a2.047 2.047 0 0 1 2.828 0l2.543 2.543 6.549-7.366a2.062 2.062 0 0 1 2.989 0l6.747 7.59a3 3 0 0 1 .758 1.988v3.745a2 2 0 0 1 -2 2h-24a2 2 0 0 1 -2-2z"/><path d="m42 35.255a1 1 0 0 0 -.253-.664l-6.747-7.591-6.548 7.366a2.011 2.011 0 0 1 -1.436.671 2.154 2.154 0 0 1 -1.472-.584l-2.544-2.544-4.707 4.707a1.007 1.007 0 0 0 -.293.707v1.677h24z"/><circle cx="42" cy="51" r="2"/><circle cx="30" cy="51" r="2"/><circle cx="18" cy="51" r="2"/><circle cx="19" cy="12" r="1"/><path d="m46 7h-32a2 2 0 0 0 -2 2v8h36v-8a2 2 0 0 0 -2-2zm-27 8a3 3 0 1 1 3-3 3 3 0 0 1 -3 3zm12 0h-5a1 1 0 0 1 0-2h5a1 1 0 0 1 0 2zm3-4h-8a1 1 0 0 1 0-2h8a1 1 0 0 1 0 2z"/><circle cx="19.5" cy="25.5" r="1.5"/><path d="m6.731 20.318a1 1 0 0 0 -1.413-.049l-4.738 4.411a1.792 1.792 0 0 0 0 2.64l4.738 4.411a1 1 0 0 0 1.364-1.462l-4.582-4.269 4.585-4.269a1 1 0 0 0 .046-1.413z"/><path d="m59.42 24.68-4.738-4.411a1 1 0 0 0 -1.364 1.462l4.582 4.269-4.585 4.269a1 1 0 1 0 1.364 1.462l4.741-4.411a1.792 1.792 0 0 0 0-2.64z"/></svg>